<svg width="306" height="398" viewBox="0 0 306 398" fill="none" xmlns="http://www.w3.org/2000/svg">
<path fill-rule="evenodd" clip-rule="evenodd" d="M3.7729 0.507324C2.18745 0.507324 0.902344 1.79243 0.902344 3.37788C0.902344 4.96294 2.18745 6.24844 3.7729 6.24844C5.35835 6.24844 6.64346 4.96294 6.64346 3.37788C6.64346 1.79243 5.35835 0.507324 3.7729 0.507324" fill="black" fill-opacity="0.1"/>
<path fill-rule="evenodd" clip-rule="evenodd" d="M3.7729 25.4177C2.18745 25.4177 0.902344 26.7028 0.902344 28.2883C0.902344 29.8733 2.18745 31.1588 3.7729 31.1588C5.35835 31.1588 6.64346 29.8733 6.64346 28.2883C6.64346 26.7028 5.35835 25.4177 3.7729 25.4177" fill="black" fill-opacity="0.1"/>
<path fill-rule="evenodd" clip-rule="evenodd" d="M3.7729 50.3284C2.18745 50.3284 0.902344 51.6135 0.902344 53.1989C0.902344 54.7844 2.18745 56.0695 3.7729 56.0695C5.35835 56.0695 6.64346 54.7844 6.64346 53.1989C6.64346 51.6135 5.35835 50.3284 3.7729 50.3284" fill="black" fill-opacity="0.1"/>
<path fill-rule="evenodd" clip-rule="evenodd" d="M3.7729 75.2388C2.18745 75.2388 0.902344 76.5243 0.902344 78.1093C0.902344 79.6948 2.18745 80.9799 3.7729 80.9799C5.35835 80.9799 6.64346 79.6948 6.64346 78.1093C6.64346 76.5243 5.35835 75.2388 3.7729 75.2388" fill="black" fill-opacity="0.1"/>
<path fill-rule="evenodd" clip-rule="evenodd" d="M3.7729 100.149C2.18745 100.149 0.902344 101.435 0.902344 103.02C0.902344 104.605 2.18745 105.891 3.7729 105.891C5.35835 105.891 6.64346 104.605 6.64346 103.02C6.64346 101.435 5.35835 100.149 3.7729 100.149" fill="black" fill-opacity="0.1"/>
<path fill-rule="evenodd" clip-rule="evenodd" d="M3.7729 125.06C2.18745 125.06 0.902344 126.345 0.902344 127.93C0.902344 129.516 2.18745 130.801 3.7729 130.801C5.35835 130.801 6.64346 129.516 6.64346 127.93C6.64346 126.345 5.35835 125.06 3.7729 125.06" fill="black" fill-opacity="0.1"/>
<path fill-rule="evenodd" clip-rule="evenodd" d="M3.7729 149.97C2.18745 149.97 0.902344 151.256 0.902344 152.841C0.902344 154.426 2.18745 155.712 3.7729 155.712C5.35835 155.712 6.64346 154.426 6.64346 152.841C6.64346 151.256 5.35835 149.97 3.7729 149.97" fill="black" fill-opacity="0.1"/>
<path fill-rule="evenodd" clip-rule="evenodd" d="M3.7729 174.881C2.18745 174.881 0.902344 176.166 0.902344 177.751C0.902344 179.337 2.18745 180.622 3.7729 180.622C5.35835 180.622 6.64346 179.337 6.64346 177.751C6.64346 176.166 5.35835 174.881 3.7729 174.881" fill="black" fill-opacity="0.1"/>
<path fill-rule="evenodd" clip-rule="evenodd" d="M3.7729 199.791C2.18745 199.791 0.902344 201.077 0.902344 202.662C0.902344 204.247 2.18745 205.532 3.7729 205.532C5.35835 205.532 6.64346 204.247 6.64346 202.662C6.64346 201.077 5.35835 199.791 3.7729 199.791" fill="black" fill-opacity="0.1"/>
<path fill-rule="evenodd" clip-rule="evenodd" d="M3.7729 224.702C2.18745 224.702 0.902344 225.987 0.902344 227.573C0.902344 229.158 2.18745 230.443 3.7729 230.443C5.35835 230.443 6.64346 229.158 6.64346 227.573C6.64346 225.987 5.35835 224.702 3.7729 224.702" fill="black" fill-opacity="0.1"/>
<path fill-rule="evenodd" clip-rule="evenodd" d="M3.7729 249.613C2.18745 249.613 0.902344 250.898 0.902344 252.483C0.902344 254.068 2.18745 255.354 3.7729 255.354C5.35835 255.354 6.64346 254.068 6.64346 252.483C6.64346 250.898 5.35835 249.613 3.7729 249.613" fill="black" fill-opacity="0.1"/>
<path fill-rule="evenodd" clip-rule="evenodd" d="M3.7729 274.523C2.18745 274.523 0.902344 275.808 0.902344 277.394C0.902344 278.979 2.18745 280.264 3.7729 280.264C5.35835 280.264 6.64346 278.979 6.64346 277.394C6.64346 275.808 5.35835 274.523 3.7729 274.523" fill="black" fill-opacity="0.1"/>
<path fill-rule="evenodd" clip-rule="evenodd" d="M3.7729 299.434C2.18745 299.434 0.902344 300.719 0.902344 302.304C0.902344 303.89 2.18745 305.175 3.7729 305.175C5.35835 305.175 6.64346 303.89 6.64346 302.304C6.64346 300.719 5.35835 299.434 3.7729 299.434" fill="black" fill-opacity="0.1"/>
<path fill-rule="evenodd" clip-rule="evenodd" d="M3.7729 324.344C2.18745 324.344 0.902344 325.63 0.902344 327.215C0.902344 328.8 2.18745 330.085 3.7729 330.085C5.35835 330.085 6.64346 328.8 6.64346 327.215C6.64346 325.63 5.35835 324.344 3.7729 324.344" fill="black" fill-opacity="0.1"/>
<path fill-rule="evenodd" clip-rule="evenodd" d="M3.7729 349.255C2.18745 349.255 0.902344 350.54 0.902344 352.125C0.902344 353.711 2.18745 354.996 3.7729 354.996C5.35835 354.996 6.64346 353.711 6.64346 352.125C6.64346 350.54 5.35835 349.255 3.7729 349.255" fill="black" fill-opacity="0.1"/>
<path fill-rule="evenodd" clip-rule="evenodd" d="M3.7729 370.234C2.18745 370.234 0.902344 371.519 0.902344 373.104C0.902344 374.69 2.18745 375.975 3.7729 375.975C5.35835 375.975 6.64346 374.69 6.64346 373.104C6.64346 371.519 5.35835 370.234 3.7729 370.234" fill="black" fill-opacity="0.1"/>
<path fill-rule="evenodd" clip-rule="evenodd" d="M3.7729 391.213C2.18745 391.213 0.902344 392.499 0.902344 394.084C0.902344 395.669 2.18745 396.954 3.7729 396.954C5.35835 396.954 6.64346 395.669 6.64346 394.084C6.64346 392.499 5.35835 391.213 3.7729 391.213" fill="black" fill-opacity="0.1"/>
<path fill-rule="evenodd" clip-rule="evenodd" d="M28.6831 0.507324C27.0976 0.507324 25.8125 1.79243 25.8125 3.37788C25.8125 4.96294 27.0976 6.24844 28.6831 6.24844C30.2685 6.24844 31.5536 4.96294 31.5536 3.37788C31.5536 1.79243 30.2685 0.507324 28.6831 0.507324" fill="black" fill-opacity="0.1"/>
<path fill-rule="evenodd" clip-rule="evenodd" d="M28.6831 25.4177C27.0976 25.4177 25.8125 26.7028 25.8125 28.2883C25.8125 29.8733 27.0976 31.1588 28.6831 31.1588C30.2685 31.1588 31.5536 29.8733 31.5536 28.2883C31.5536 26.7028 30.2685 25.4177 28.6831 25.4177" fill="black" fill-opacity="0.1"/>
<path fill-rule="evenodd" clip-rule="evenodd" d="M28.6831 50.3284C27.0976 50.3284 25.8125 51.6135 25.8125 53.1989C25.8125 54.7844 27.0976 56.0695 28.6831 56.0695C30.2685 56.0695 31.5536 54.7844 31.5536 53.1989C31.5536 51.6135 30.2685 50.3284 28.6831 50.3284" fill="black" fill-opacity="0.1"/>
<path fill-rule="evenodd" clip-rule="evenodd" d="M28.6831 75.2388C27.0976 75.2388 25.8125 76.5243 25.8125 78.1093C25.8125 79.6948 27.0976 80.9799 28.6831 80.9799C30.2685 80.9799 31.5536 79.6948 31.5536 78.1093C31.5536 76.5243 30.2685 75.2388 28.6831 75.2388" fill="black" fill-opacity="0.1"/>
<path fill-rule="evenodd" clip-rule="evenodd" d="M28.6831 100.149C27.0976 100.149 25.8125 101.435 25.8125 103.02C25.8125 104.605 27.0976 105.891 28.6831 105.891C30.2685 105.891 31.5536 104.605 31.5536 103.02C31.5536 101.435 30.2685 100.149 28.6831 100.149" fill="black" fill-opacity="0.1"/>
<path fill-rule="evenodd" clip-rule="evenodd" d="M28.6831 125.06C27.0976 125.06 25.8125 126.345 25.8125 127.93C25.8125 129.516 27.0976 130.801 28.6831 130.801C30.2685 130.801 31.5536 129.516 31.5536 127.93C31.5536 126.345 30.2685 125.06 28.6831 125.06" fill="black" fill-opacity="0.1"/>
<path fill-rule="evenodd" clip-rule="evenodd" d="M28.6831 149.97C27.0976 149.97 25.8125 151.256 25.8125 152.841C25.8125 154.426 27.0976 155.712 28.6831 155.712C30.2685 155.712 31.5536 154.426 31.5536 152.841C31.5536 151.256 30.2685 149.97 28.6831 149.97" fill="black" fill-opacity="0.1"/>
<path fill-rule="evenodd" clip-rule="evenodd" d="M28.6831 174.881C27.0976 174.881 25.8125 176.166 25.8125 177.751C25.8125 179.337 27.0976 180.622 28.6831 180.622C30.2685 180.622 31.5536 179.337 31.5536 177.751C31.5536 176.166 30.2685 174.881 28.6831 174.881" fill="black" fill-opacity="0.1"/>
<path fill-rule="evenodd" clip-rule="evenodd" d="M28.6831 199.791C27.0976 199.791 25.8125 201.077 25.8125 202.662C25.8125 204.247 27.0976 205.532 28.6831 205.532C30.2685 205.532 31.5536 204.247 31.5536 202.662C31.5536 201.077 30.2685 199.791 28.6831 199.791" fill="black" fill-opacity="0.1"/>
<path fill-rule="evenodd" clip-rule="evenodd" d="M28.6831 224.702C27.0976 224.702 25.8125 225.987 25.8125 227.573C25.8125 229.158 27.0976 230.443 28.6831 230.443C30.2685 230.443 31.5536 229.158 31.5536 227.573C31.5536 225.987 30.2685 224.702 28.6831 224.702" fill="black" fill-opacity="0.1"/>
<path fill-rule="evenodd" clip-rule="evenodd" d="M28.6831 249.613C27.0976 249.613 25.8125 250.898 25.8125 252.483C25.8125 254.068 27.0976 255.354 28.6831 255.354C30.2685 255.354 31.5536 254.068 31.5536 252.483C31.5536 250.898 30.2685 249.613 28.6831 249.613" fill="black" fill-opacity="0.1"/>
<path fill-rule="evenodd" clip-rule="evenodd" d="M28.6831 274.523C27.0976 274.523 25.8125 275.808 25.8125 277.394C25.8125 278.979 27.0976 280.264 28.6831 280.264C30.2685 280.264 31.5536 278.979 31.5536 277.394C31.5536 275.808 30.2685 274.523 28.6831 274.523" fill="black" fill-opacity="0.1"/>
<path fill-rule="evenodd" clip-rule="evenodd" d="M28.6831 299.434C27.0976 299.434 25.8125 300.719 25.8125 302.304C25.8125 303.89 27.0976 305.175 28.6831 305.175C30.2685 305.175 31.5536 303.89 31.5536 302.304C31.5536 300.719 30.2685 299.434 28.6831 299.434" fill="black" fill-opacity="0.1"/>
<path fill-rule="evenodd" clip-rule="evenodd" d="M28.6831 324.344C27.0976 324.344 25.8125 325.63 25.8125 327.215C25.8125 328.8 27.0976 330.085 28.6831 330.085C30.2685 330.085 31.5536 328.8 31.5536 327.215C31.5536 325.63 30.2685 324.344 28.6831 324.344" fill="black" fill-opacity="0.1"/>
<path fill-rule="evenodd" clip-rule="evenodd" d="M28.6831 349.255C27.0976 349.255 25.8125 350.54 25.8125 352.125C25.8125 353.711 27.0976 354.996 28.6831 354.996C30.2685 354.996 31.5536 353.711 31.5536 352.125C31.5536 350.54 30.2685 349.255 28.6831 349.255" fill="black" fill-opacity="0.1"/>
<path fill-rule="evenodd" clip-rule="evenodd" d="M28.6831 370.234C27.0976 370.234 25.8125 371.519 25.8125 373.104C25.8125 374.69 27.0976 375.975 28.6831 375.975C30.2685 375.975 31.5536 374.69 31.5536 373.104C31.5536 371.519 30.2685 370.234 28.6831 370.234" fill="black" fill-opacity="0.1"/>
<path fill-rule="evenodd" clip-rule="evenodd" d="M28.6831 391.213C27.0976 391.213 25.8125 392.499 25.8125 394.084C25.8125 395.669 27.0976 396.954 28.6831 396.954C30.2685 396.954 31.5536 395.669 31.5536 394.084C31.5536 392.499 30.2685 391.213 28.6831 391.213" fill="black" fill-opacity="0.1"/>
<path fill-rule="evenodd" clip-rule="evenodd" d="M53.5932 0.507324C52.0078 0.507324 50.7227 1.79243 50.7227 3.37788C50.7227 4.96294 52.0078 6.24844 53.5932 6.24844C55.1787 6.24844 56.4638 4.96294 56.4638 3.37788C56.4638 1.79243 55.1787 0.507324 53.5932 0.507324" fill="black" fill-opacity="0.1"/>
<path fill-rule="evenodd" clip-rule="evenodd" d="M53.5932 25.4177C52.0078 25.4177 50.7227 26.7028 50.7227 28.2883C50.7227 29.8733 52.0078 31.1588 53.5932 31.1588C55.1787 31.1588 56.4638 29.8733 56.4638 28.2883C56.4638 26.7028 55.1787 25.4177 53.5932 25.4177" fill="black" fill-opacity="0.1"/>
<path fill-rule="evenodd" clip-rule="evenodd" d="M53.5932 50.3284C52.0078 50.3284 50.7227 51.6135 50.7227 53.1989C50.7227 54.7844 52.0078 56.0695 53.5932 56.0695C55.1787 56.0695 56.4638 54.7844 56.4638 53.1989C56.4638 51.6135 55.1787 50.3284 53.5932 50.3284" fill="black" fill-opacity="0.1"/>
<path fill-rule="evenodd" clip-rule="evenodd" d="M53.5932 75.2388C52.0078 75.2388 50.7227 76.5243 50.7227 78.1093C50.7227 79.6948 52.0078 80.9799 53.5932 80.9799C55.1787 80.9799 56.4638 79.6948 56.4638 78.1093C56.4638 76.5243 55.1787 75.2388 53.5932 75.2388" fill="black" fill-opacity="0.1"/>
<path fill-rule="evenodd" clip-rule="evenodd" d="M53.5932 100.149C52.0078 100.149 50.7227 101.435 50.7227 103.02C50.7227 104.605 52.0078 105.891 53.5932 105.891C55.1787 105.891 56.4638 104.605 56.4638 103.02C56.4638 101.435 55.1787 100.149 53.5932 100.149" fill="black" fill-opacity="0.1"/>
<path fill-rule="evenodd" clip-rule="evenodd" d="M53.5932 125.06C52.0078 125.06 50.7227 126.345 50.7227 127.93C50.7227 129.516 52.0078 130.801 53.5932 130.801C55.1787 130.801 56.4638 129.516 56.4638 127.93C56.4638 126.345 55.1787 125.06 53.5932 125.06" fill="black" fill-opacity="0.1"/>
<path fill-rule="evenodd" clip-rule="evenodd" d="M53.5932 149.97C52.0078 149.97 50.7227 151.256 50.7227 152.841C50.7227 154.426 52.0078 155.712 53.5932 155.712C55.1787 155.712 56.4638 154.426 56.4638 152.841C56.4638 151.256 55.1787 149.97 53.5932 149.97" fill="black" fill-opacity="0.1"/>
<path fill-rule="evenodd" clip-rule="evenodd" d="M53.5932 174.881C52.0078 174.881 50.7227 176.166 50.7227 177.751C50.7227 179.337 52.0078 180.622 53.5932 180.622C55.1787 180.622 56.4638 179.337 56.4638 177.751C56.4638 176.166 55.1787 174.881 53.5932 174.881" fill="black" fill-opacity="0.1"/>
<path fill-rule="evenodd" clip-rule="evenodd" d="M53.5932 199.791C52.0078 199.791 50.7227 201.077 50.7227 202.662C50.7227 204.247 52.0078 205.532 53.5932 205.532C55.1787 205.532 56.4638 204.247 56.4638 202.662C56.4638 201.077 55.1787 199.791 53.5932 199.791" fill="black" fill-opacity="0.1"/>
<path fill-rule="evenodd" clip-rule="evenodd" d="M53.5932 224.702C52.0078 224.702 50.7227 225.987 50.7227 227.573C50.7227 229.158 52.0078 230.443 53.5932 230.443C55.1787 230.443 56.4638 229.158 56.4638 227.573C56.4638 225.987 55.1787 224.702 53.5932 224.702" fill="black" fill-opacity="0.1"/>
<path fill-rule="evenodd" clip-rule="evenodd" d="M53.5932 249.613C52.0078 249.613 50.7227 250.898 50.7227 252.483C50.7227 254.068 52.0078 255.354 53.5932 255.354C55.1787 255.354 56.4638 254.068 56.4638 252.483C56.4638 250.898 55.1787 249.613 53.5932 249.613" fill="black" fill-opacity="0.1"/>
<path fill-rule="evenodd" clip-rule="evenodd" d="M53.5932 274.523C52.0078 274.523 50.7227 275.808 50.7227 277.394C50.7227 278.979 52.0078 280.264 53.5932 280.264C55.1787 280.264 56.4638 278.979 56.4638 277.394C56.4638 275.808 55.1787 274.523 53.5932 274.523" fill="black" fill-opacity="0.1"/>
<path fill-rule="evenodd" clip-rule="evenodd" d="M53.5932 299.434C52.0078 299.434 50.7227 300.719 50.7227 302.304C50.7227 303.89 52.0078 305.175 53.5932 305.175C55.1787 305.175 56.4638 303.89 56.4638 302.304C56.4638 300.719 55.1787 299.434 53.5932 299.434" fill="black" fill-opacity="0.1"/>
<path fill-rule="evenodd" clip-rule="evenodd" d="M53.5932 324.344C52.0078 324.344 50.7227 325.63 50.7227 327.215C50.7227 328.8 52.0078 330.085 53.5932 330.085C55.1787 330.085 56.4638 328.8 56.4638 327.215C56.4638 325.63 55.1787 324.344 53.5932 324.344" fill="black" fill-opacity="0.1"/>
<path fill-rule="evenodd" clip-rule="evenodd" d="M53.5932 349.255C52.0078 349.255 50.7227 350.54 50.7227 352.125C50.7227 353.711 52.0078 354.996 53.5932 354.996C55.1787 354.996 56.4638 353.711 56.4638 352.125C56.4638 350.54 55.1787 349.255 53.5932 349.255" fill="black" fill-opacity="0.1"/>
<path fill-rule="evenodd" clip-rule="evenodd" d="M53.5932 370.234C52.0078 370.234 50.7227 371.519 50.7227 373.104C50.7227 374.69 52.0078 375.975 53.5932 375.975C55.1787 375.975 56.4638 374.69 56.4638 373.104C56.4638 371.519 55.1787 370.234 53.5932 370.234" fill="black" fill-opacity="0.1"/>
<path fill-rule="evenodd" clip-rule="evenodd" d="M53.5932 391.213C52.0078 391.213 50.7227 392.499 50.7227 394.084C50.7227 395.669 52.0078 396.954 53.5932 396.954C55.1787 396.954 56.4638 395.669 56.4638 394.084C56.4638 392.499 55.1787 391.213 53.5932 391.213" fill="black" fill-opacity="0.1"/>
<path fill-rule="evenodd" clip-rule="evenodd" d="M78.5053 0.507324C76.9199 0.507324 75.6348 1.79243 75.6348 3.37788C75.6348 4.96294 76.9199 6.24844 78.5053 6.24844C80.0908 6.24844 81.3759 4.96294 81.3759 3.37788C81.3759 1.79243 80.0908 0.507324 78.5053 0.507324" fill="black" fill-opacity="0.1"/>
<path fill-rule="evenodd" clip-rule="evenodd" d="M78.5053 25.4177C76.9199 25.4177 75.6348 26.7028 75.6348 28.2883C75.6348 29.8733 76.9199 31.1588 78.5053 31.1588C80.0908 31.1588 81.3759 29.8733 81.3759 28.2883C81.3759 26.7028 80.0908 25.4177 78.5053 25.4177" fill="black" fill-opacity="0.1"/>
<path fill-rule="evenodd" clip-rule="evenodd" d="M78.5053 50.3284C76.9199 50.3284 75.6348 51.6135 75.6348 53.1989C75.6348 54.7844 76.9199 56.0695 78.5053 56.0695C80.0908 56.0695 81.3759 54.7844 81.3759 53.1989C81.3759 51.6135 80.0908 50.3284 78.5053 50.3284" fill="black" fill-opacity="0.1"/>
<path fill-rule="evenodd" clip-rule="evenodd" d="M78.5053 75.2388C76.9199 75.2388 75.6348 76.5243 75.6348 78.1093C75.6348 79.6948 76.9199 80.9799 78.5053 80.9799C80.0908 80.9799 81.3759 79.6948 81.3759 78.1093C81.3759 76.5243 80.0908 75.2388 78.5053 75.2388" fill="black" fill-opacity="0.1"/>
<path fill-rule="evenodd" clip-rule="evenodd" d="M78.5053 100.149C76.9199 100.149 75.6348 101.435 75.6348 103.02C75.6348 104.605 76.9199 105.891 78.5053 105.891C80.0908 105.891 81.3759 104.605 81.3759 103.02C81.3759 101.435 80.0908 100.149 78.5053 100.149" fill="black" fill-opacity="0.1"/>
<path fill-rule="evenodd" clip-rule="evenodd" d="M78.5053 125.06C76.9199 125.06 75.6348 126.345 75.6348 127.93C75.6348 129.516 76.9199 130.801 78.5053 130.801C80.0908 130.801 81.3759 129.516 81.3759 127.93C81.3759 126.345 80.0908 125.06 78.5053 125.06" fill="black" fill-opacity="0.1"/>
<path fill-rule="evenodd" clip-rule="evenodd" d="M78.5053 149.97C76.9199 149.97 75.6348 151.256 75.6348 152.841C75.6348 154.426 76.9199 155.712 78.5053 155.712C80.0908 155.712 81.3759 154.426 81.3759 152.841C81.3759 151.256 80.0908 149.97 78.5053 149.97" fill="black" fill-opacity="0.1"/>
<path fill-rule="evenodd" clip-rule="evenodd" d="M78.5053 174.881C76.9199 174.881 75.6348 176.166 75.6348 177.751C75.6348 179.337 76.9199 180.622 78.5053 180.622C80.0908 180.622 81.3759 179.337 81.3759 177.751C81.3759 176.166 80.0908 174.881 78.5053 174.881" fill="black" fill-opacity="0.1"/>
<path fill-rule="evenodd" clip-rule="evenodd" d="M78.5053 199.791C76.9199 199.791 75.6348 201.077 75.6348 202.662C75.6348 204.247 76.9199 205.532 78.5053 205.532C80.0908 205.532 81.3759 204.247 81.3759 202.662C81.3759 201.077 80.0908 199.791 78.5053 199.791" fill="black" fill-opacity="0.1"/>
<path fill-rule="evenodd" clip-rule="evenodd" d="M78.5053 224.702C76.9199 224.702 75.6348 225.987 75.6348 227.573C75.6348 229.158 76.9199 230.443 78.5053 230.443C80.0908 230.443 81.3759 229.158 81.3759 227.573C81.3759 225.987 80.0908 224.702 78.5053 224.702" fill="black" fill-opacity="0.1"/>
<path fill-rule="evenodd" clip-rule="evenodd" d="M78.5053 249.613C76.9199 249.613 75.6348 250.898 75.6348 252.483C75.6348 254.068 76.9199 255.354 78.5053 255.354C80.0908 255.354 81.3759 254.068 81.3759 252.483C81.3759 250.898 80.0908 249.613 78.5053 249.613" fill="black" fill-opacity="0.1"/>
<path fill-rule="evenodd" clip-rule="evenodd" d="M78.5053 274.523C76.9199 274.523 75.6348 275.808 75.6348 277.394C75.6348 278.979 76.9199 280.264 78.5053 280.264C80.0908 280.264 81.3759 278.979 81.3759 277.394C81.3759 275.808 80.0908 274.523 78.5053 274.523" fill="black" fill-opacity="0.1"/>
<path fill-rule="evenodd" clip-rule="evenodd" d="M78.5053 299.434C76.9199 299.434 75.6348 300.719 75.6348 302.304C75.6348 303.89 76.9199 305.175 78.5053 305.175C80.0908 305.175 81.3759 303.89 81.3759 302.304C81.3759 300.719 80.0908 299.434 78.5053 299.434" fill="black" fill-opacity="0.1"/>
<path fill-rule="evenodd" clip-rule="evenodd" d="M78.5053 324.344C76.9199 324.344 75.6348 325.63 75.6348 327.215C75.6348 328.8 76.9199 330.085 78.5053 330.085C80.0908 330.085 81.3759 328.8 81.3759 327.215C81.3759 325.63 80.0908 324.344 78.5053 324.344" fill="black" fill-opacity="0.1"/>
<path fill-rule="evenodd" clip-rule="evenodd" d="M78.5053 349.255C76.9199 349.255 75.6348 350.54 75.6348 352.125C75.6348 353.711 76.9199 354.996 78.5053 354.996C80.0908 354.996 81.3759 353.711 81.3759 352.125C81.3759 350.54 80.0908 349.255 78.5053 349.255" fill="black" fill-opacity="0.1"/>
<path fill-rule="evenodd" clip-rule="evenodd" d="M78.5053 370.234C76.9199 370.234 75.6348 371.519 75.6348 373.104C75.6348 374.69 76.9199 375.975 78.5053 375.975C80.0908 375.975 81.3759 374.69 81.3759 373.104C81.3759 371.519 80.0908 370.234 78.5053 370.234" fill="black" fill-opacity="0.1"/>
<path fill-rule="evenodd" clip-rule="evenodd" d="M78.5053 391.213C76.9199 391.213 75.6348 392.499 75.6348 394.084C75.6348 395.669 76.9199 396.954 78.5053 396.954C80.0908 396.954 81.3759 395.669 81.3759 394.084C81.3759 392.499 80.0908 391.213 78.5053 391.213" fill="black" fill-opacity="0.1"/>
<path fill-rule="evenodd" clip-rule="evenodd" d="M103.415 0.507324C101.83 0.507324 100.545 1.79243 100.545 3.37788C100.545 4.96294 101.83 6.24844 103.415 6.24844C105.001 6.24844 106.286 4.96294 106.286 3.37788C106.286 1.79243 105.001 0.507324 103.415 0.507324" fill="black" fill-opacity="0.1"/>
<path fill-rule="evenodd" clip-rule="evenodd" d="M103.415 25.4177C101.83 25.4177 100.545 26.7028 100.545 28.2883C100.545 29.8733 101.83 31.1588 103.415 31.1588C105.001 31.1588 106.286 29.8733 106.286 28.2883C106.286 26.7028 105.001 25.4177 103.415 25.4177" fill="black" fill-opacity="0.1"/>
<path fill-rule="evenodd" clip-rule="evenodd" d="M103.415 50.3284C101.83 50.3284 100.545 51.6135 100.545 53.1989C100.545 54.7844 101.83 56.0695 103.415 56.0695C105.001 56.0695 106.286 54.7844 106.286 53.1989C106.286 51.6135 105.001 50.3284 103.415 50.3284" fill="black" fill-opacity="0.1"/>
<path fill-rule="evenodd" clip-rule="evenodd" d="M103.415 75.2388C101.83 75.2388 100.545 76.5243 100.545 78.1093C100.545 79.6948 101.83 80.9799 103.415 80.9799C105.001 80.9799 106.286 79.6948 106.286 78.1093C106.286 76.5243 105.001 75.2388 103.415 75.2388" fill="black" fill-opacity="0.1"/>
<path fill-rule="evenodd" clip-rule="evenodd" d="M103.415 100.149C101.83 100.149 100.545 101.435 100.545 103.02C100.545 104.605 101.83 105.891 103.415 105.891C105.001 105.891 106.286 104.605 106.286 103.02C106.286 101.435 105.001 100.149 103.415 100.149" fill="black" fill-opacity="0.1"/>
<path fill-rule="evenodd" clip-rule="evenodd" d="M103.415 125.06C101.83 125.06 100.545 126.345 100.545 127.93C100.545 129.516 101.83 130.801 103.415 130.801C105.001 130.801 106.286 129.516 106.286 127.93C106.286 126.345 105.001 125.06 103.415 125.06" fill="black" fill-opacity="0.1"/>
<path fill-rule="evenodd" clip-rule="evenodd" d="M103.415 149.97C101.83 149.97 100.545 151.256 100.545 152.841C100.545 154.426 101.83 155.712 103.415 155.712C105.001 155.712 106.286 154.426 106.286 152.841C106.286 151.256 105.001 149.97 103.415 149.97" fill="black" fill-opacity="0.1"/>
<path fill-rule="evenodd" clip-rule="evenodd" d="M103.415 174.881C101.83 174.881 100.545 176.166 100.545 177.751C100.545 179.337 101.83 180.622 103.415 180.622C105.001 180.622 106.286 179.337 106.286 177.751C106.286 176.166 105.001 174.881 103.415 174.881" fill="black" fill-opacity="0.1"/>
<path fill-rule="evenodd" clip-rule="evenodd" d="M103.415 199.791C101.83 199.791 100.545 201.077 100.545 202.662C100.545 204.247 101.83 205.532 103.415 205.532C105.001 205.532 106.286 204.247 106.286 202.662C106.286 201.077 105.001 199.791 103.415 199.791" fill="black" fill-opacity="0.1"/>
<path fill-rule="evenodd" clip-rule="evenodd" d="M103.415 224.702C101.83 224.702 100.545 225.987 100.545 227.573C100.545 229.158 101.83 230.443 103.415 230.443C105.001 230.443 106.286 229.158 106.286 227.573C106.286 225.987 105.001 224.702 103.415 224.702" fill="black" fill-opacity="0.1"/>
<path fill-rule="evenodd" clip-rule="evenodd" d="M103.415 249.613C101.83 249.613 100.545 250.898 100.545 252.483C100.545 254.068 101.83 255.354 103.415 255.354C105.001 255.354 106.286 254.068 106.286 252.483C106.286 250.898 105.001 249.613 103.415 249.613" fill="black" fill-opacity="0.1"/>
<path fill-rule="evenodd" clip-rule="evenodd" d="M103.415 274.523C101.83 274.523 100.545 275.808 100.545 277.394C100.545 278.979 101.83 280.264 103.415 280.264C105.001 280.264 106.286 278.979 106.286 277.394C106.286 275.808 105.001 274.523 103.415 274.523" fill="black" fill-opacity="0.1"/>
<path fill-rule="evenodd" clip-rule="evenodd" d="M103.415 299.434C101.83 299.434 100.545 300.719 100.545 302.304C100.545 303.89 101.83 305.175 103.415 305.175C105.001 305.175 106.286 303.89 106.286 302.304C106.286 300.719 105.001 299.434 103.415 299.434" fill="black" fill-opacity="0.1"/>
<path fill-rule="evenodd" clip-rule="evenodd" d="M103.415 324.344C101.83 324.344 100.545 325.63 100.545 327.215C100.545 328.8 101.83 330.085 103.415 330.085C105.001 330.085 106.286 328.8 106.286 327.215C106.286 325.63 105.001 324.344 103.415 324.344" fill="black" fill-opacity="0.1"/>
<path fill-rule="evenodd" clip-rule="evenodd" d="M103.415 349.255C101.83 349.255 100.545 350.54 100.545 352.125C100.545 353.711 101.83 354.996 103.415 354.996C105.001 354.996 106.286 353.711 106.286 352.125C106.286 350.54 105.001 349.255 103.415 349.255" fill="black" fill-opacity="0.1"/>
<path fill-rule="evenodd" clip-rule="evenodd" d="M103.415 370.234C101.83 370.234 100.545 371.519 100.545 373.104C100.545 374.69 101.83 375.975 103.415 375.975C105.001 375.975 106.286 374.69 106.286 373.104C106.286 371.519 105.001 370.234 103.415 370.234" fill="black" fill-opacity="0.1"/>
<path fill-rule="evenodd" clip-rule="evenodd" d="M103.415 391.213C101.83 391.213 100.545 392.499 100.545 394.084C100.545 395.669 101.83 396.954 103.415 396.954C105.001 396.954 106.286 395.669 106.286 394.084C106.286 392.499 105.001 391.213 103.415 391.213" fill="black" fill-opacity="0.1"/>
<path fill-rule="evenodd" clip-rule="evenodd" d="M128.326 0.507324C126.74 0.507324 125.455 1.79243 125.455 3.37788C125.455 4.96294 126.74 6.24844 128.326 6.24844C129.911 6.24844 131.196 4.96294 131.196 3.37788C131.196 1.79243 129.911 0.507324 128.326 0.507324" fill="black" fill-opacity="0.1"/>
<path fill-rule="evenodd" clip-rule="evenodd" d="M128.326 25.4177C126.74 25.4177 125.455 26.7028 125.455 28.2883C125.455 29.8733 126.74 31.1588 128.326 31.1588C129.911 31.1588 131.196 29.8733 131.196 28.2883C131.196 26.7028 129.911 25.4177 128.326 25.4177" fill="black" fill-opacity="0.1"/>
<path fill-rule="evenodd" clip-rule="evenodd" d="M128.326 50.3284C126.74 50.3284 125.455 51.6135 125.455 53.1989C125.455 54.7844 126.74 56.0695 128.326 56.0695C129.911 56.0695 131.196 54.7844 131.196 53.1989C131.196 51.6135 129.911 50.3284 128.326 50.3284" fill="black" fill-opacity="0.1"/>
<path fill-rule="evenodd" clip-rule="evenodd" d="M128.326 75.2388C126.74 75.2388 125.455 76.5243 125.455 78.1093C125.455 79.6948 126.74 80.9799 128.326 80.9799C129.911 80.9799 131.196 79.6948 131.196 78.1093C131.196 76.5243 129.911 75.2388 128.326 75.2388" fill="black" fill-opacity="0.1"/>
<path fill-rule="evenodd" clip-rule="evenodd" d="M128.326 100.149C126.74 100.149 125.455 101.435 125.455 103.02C125.455 104.605 126.74 105.891 128.326 105.891C129.911 105.891 131.196 104.605 131.196 103.02C131.196 101.435 129.911 100.149 128.326 100.149" fill="black" fill-opacity="0.1"/>
<path fill-rule="evenodd" clip-rule="evenodd" d="M128.326 125.06C126.74 125.06 125.455 126.345 125.455 127.93C125.455 129.516 126.74 130.801 128.326 130.801C129.911 130.801 131.196 129.516 131.196 127.93C131.196 126.345 129.911 125.06 128.326 125.06" fill="black" fill-opacity="0.1"/>
<path fill-rule="evenodd" clip-rule="evenodd" d="M128.326 149.97C126.74 149.97 125.455 151.256 125.455 152.841C125.455 154.426 126.74 155.712 128.326 155.712C129.911 155.712 131.196 154.426 131.196 152.841C131.196 151.256 129.911 149.97 128.326 149.97" fill="black" fill-opacity="0.1"/>
<path fill-rule="evenodd" clip-rule="evenodd" d="M128.326 174.881C126.74 174.881 125.455 176.166 125.455 177.751C125.455 179.337 126.74 180.622 128.326 180.622C129.911 180.622 131.196 179.337 131.196 177.751C131.196 176.166 129.911 174.881 128.326 174.881" fill="black" fill-opacity="0.1"/>
<path fill-rule="evenodd" clip-rule="evenodd" d="M128.326 199.791C126.74 199.791 125.455 201.077 125.455 202.662C125.455 204.247 126.74 205.532 128.326 205.532C129.911 205.532 131.196 204.247 131.196 202.662C131.196 201.077 129.911 199.791 128.326 199.791" fill="black" fill-opacity="0.1"/>
<path fill-rule="evenodd" clip-rule="evenodd" d="M128.326 224.702C126.74 224.702 125.455 225.987 125.455 227.573C125.455 229.158 126.74 230.443 128.326 230.443C129.911 230.443 131.196 229.158 131.196 227.573C131.196 225.987 129.911 224.702 128.326 224.702" fill="black" fill-opacity="0.1"/>
<path fill-rule="evenodd" clip-rule="evenodd" d="M128.326 249.613C126.74 249.613 125.455 250.898 125.455 252.483C125.455 254.068 126.74 255.354 128.326 255.354C129.911 255.354 131.196 254.068 131.196 252.483C131.196 250.898 129.911 249.613 128.326 249.613" fill="black" fill-opacity="0.1"/>
<path fill-rule="evenodd" clip-rule="evenodd" d="M128.326 274.523C126.74 274.523 125.455 275.808 125.455 277.394C125.455 278.979 126.74 280.264 128.326 280.264C129.911 280.264 131.196 278.979 131.196 277.394C131.196 275.808 129.911 274.523 128.326 274.523" fill="black" fill-opacity="0.1"/>
<path fill-rule="evenodd" clip-rule="evenodd" d="M128.326 299.434C126.74 299.434 125.455 300.719 125.455 302.304C125.455 303.89 126.74 305.175 128.326 305.175C129.911 305.175 131.196 303.89 131.196 302.304C131.196 300.719 129.911 299.434 128.326 299.434" fill="black" fill-opacity="0.1"/>
<path fill-rule="evenodd" clip-rule="evenodd" d="M128.326 324.344C126.74 324.344 125.455 325.63 125.455 327.215C125.455 328.8 126.74 330.085 128.326 330.085C129.911 330.085 131.196 328.8 131.196 327.215C131.196 325.63 129.911 324.344 128.326 324.344" fill="black" fill-opacity="0.1"/>
<path fill-rule="evenodd" clip-rule="evenodd" d="M128.326 349.255C126.74 349.255 125.455 350.54 125.455 352.125C125.455 353.711 126.74 354.996 128.326 354.996C129.911 354.996 131.196 353.711 131.196 352.125C131.196 350.54 129.911 349.255 128.326 349.255" fill="black" fill-opacity="0.1"/>
<path fill-rule="evenodd" clip-rule="evenodd" d="M128.326 370.234C126.74 370.234 125.455 371.519 125.455 373.104C125.455 374.69 126.74 375.975 128.326 375.975C129.911 375.975 131.196 374.69 131.196 373.104C131.196 371.519 129.911 370.234 128.326 370.234" fill="black" fill-opacity="0.1"/>
<path fill-rule="evenodd" clip-rule="evenodd" d="M128.326 391.213C126.74 391.213 125.455 392.499 125.455 394.084C125.455 395.669 126.74 396.954 128.326 396.954C129.911 396.954 131.196 395.669 131.196 394.084C131.196 392.499 129.911 391.213 128.326 391.213" fill="black" fill-opacity="0.1"/>
<path fill-rule="evenodd" clip-rule="evenodd" d="M153.236 0.507324C151.65 0.507324 150.365 1.79243 150.365 3.37788C150.365 4.96294 151.65 6.24844 153.236 6.24844C154.821 6.24844 156.106 4.96294 156.106 3.37788C156.106 1.79243 154.821 0.507324 153.236 0.507324" fill="black" fill-opacity="0.1"/>
<path fill-rule="evenodd" clip-rule="evenodd" d="M153.236 25.4177C151.65 25.4177 150.365 26.7028 150.365 28.2883C150.365 29.8733 151.65 31.1588 153.236 31.1588C154.821 31.1588 156.106 29.8733 156.106 28.2883C156.106 26.7028 154.821 25.4177 153.236 25.4177" fill="black" fill-opacity="0.1"/>
<path fill-rule="evenodd" clip-rule="evenodd" d="M153.236 50.3284C151.65 50.3284 150.365 51.6135 150.365 53.1989C150.365 54.7844 151.65 56.0695 153.236 56.0695C154.821 56.0695 156.106 54.7844 156.106 53.1989C156.106 51.6135 154.821 50.3284 153.236 50.3284" fill="black" fill-opacity="0.1"/>
<path fill-rule="evenodd" clip-rule="evenodd" d="M153.236 75.2388C151.65 75.2388 150.365 76.5243 150.365 78.1093C150.365 79.6948 151.65 80.9799 153.236 80.9799C154.821 80.9799 156.106 79.6948 156.106 78.1093C156.106 76.5243 154.821 75.2388 153.236 75.2388" fill="black" fill-opacity="0.1"/>
<path fill-rule="evenodd" clip-rule="evenodd" d="M153.236 100.149C151.65 100.149 150.365 101.435 150.365 103.02C150.365 104.605 151.65 105.891 153.236 105.891C154.821 105.891 156.106 104.605 156.106 103.02C156.106 101.435 154.821 100.149 153.236 100.149" fill="black" fill-opacity="0.1"/>
<path fill-rule="evenodd" clip-rule="evenodd" d="M153.236 125.06C151.65 125.06 150.365 126.345 150.365 127.93C150.365 129.516 151.65 130.801 153.236 130.801C154.821 130.801 156.106 129.516 156.106 127.93C156.106 126.345 154.821 125.06 153.236 125.06" fill="black" fill-opacity="0.1"/>
<path fill-rule="evenodd" clip-rule="evenodd" d="M153.236 149.97C151.65 149.97 150.365 151.256 150.365 152.841C150.365 154.426 151.65 155.712 153.236 155.712C154.821 155.712 156.106 154.426 156.106 152.841C156.106 151.256 154.821 149.97 153.236 149.97" fill="black" fill-opacity="0.1"/>
<path fill-rule="evenodd" clip-rule="evenodd" d="M153.236 174.881C151.65 174.881 150.365 176.166 150.365 177.751C150.365 179.337 151.65 180.622 153.236 180.622C154.821 180.622 156.106 179.337 156.106 177.751C156.106 176.166 154.821 174.881 153.236 174.881" fill="black" fill-opacity="0.1"/>
<path fill-rule="evenodd" clip-rule="evenodd" d="M153.236 199.791C151.65 199.791 150.365 201.077 150.365 202.662C150.365 204.247 151.65 205.532 153.236 205.532C154.821 205.532 156.106 204.247 156.106 202.662C156.106 201.077 154.821 199.791 153.236 199.791" fill="black" fill-opacity="0.1"/>
<path fill-rule="evenodd" clip-rule="evenodd" d="M153.236 224.702C151.65 224.702 150.365 225.987 150.365 227.573C150.365 229.158 151.65 230.443 153.236 230.443C154.821 230.443 156.106 229.158 156.106 227.573C156.106 225.987 154.821 224.702 153.236 224.702" fill="black" fill-opacity="0.1"/>
<path fill-rule="evenodd" clip-rule="evenodd" d="M153.236 249.613C151.65 249.613 150.365 250.898 150.365 252.483C150.365 254.068 151.65 255.354 153.236 255.354C154.821 255.354 156.106 254.068 156.106 252.483C156.106 250.898 154.821 249.613 153.236 249.613" fill="black" fill-opacity="0.1"/>
<path fill-rule="evenodd" clip-rule="evenodd" d="M153.236 274.523C151.65 274.523 150.365 275.808 150.365 277.394C150.365 278.979 151.65 280.264 153.236 280.264C154.821 280.264 156.106 278.979 156.106 277.394C156.106 275.808 154.821 274.523 153.236 274.523" fill="black" fill-opacity="0.1"/>
<path fill-rule="evenodd" clip-rule="evenodd" d="M153.236 299.434C151.65 299.434 150.365 300.719 150.365 302.304C150.365 303.89 151.65 305.175 153.236 305.175C154.821 305.175 156.106 303.89 156.106 302.304C156.106 300.719 154.821 299.434 153.236 299.434" fill="black" fill-opacity="0.1"/>
<path fill-rule="evenodd" clip-rule="evenodd" d="M153.236 324.344C151.65 324.344 150.365 325.63 150.365 327.215C150.365 328.8 151.65 330.085 153.236 330.085C154.821 330.085 156.106 328.8 156.106 327.215C156.106 325.63 154.821 324.344 153.236 324.344" fill="black" fill-opacity="0.1"/>
<path fill-rule="evenodd" clip-rule="evenodd" d="M153.236 349.255C151.65 349.255 150.365 350.54 150.365 352.125C150.365 353.711 151.65 354.996 153.236 354.996C154.821 354.996 156.106 353.711 156.106 352.125C156.106 350.54 154.821 349.255 153.236 349.255" fill="black" fill-opacity="0.1"/>
<path fill-rule="evenodd" clip-rule="evenodd" d="M153.236 370.234C151.65 370.234 150.365 371.519 150.365 373.104C150.365 374.69 151.65 375.975 153.236 375.975C154.821 375.975 156.106 374.69 156.106 373.104C156.106 371.519 154.821 370.234 153.236 370.234" fill="black" fill-opacity="0.1"/>
<path fill-rule="evenodd" clip-rule="evenodd" d="M153.236 391.213C151.65 391.213 150.365 392.499 150.365 394.084C150.365 395.669 151.65 396.954 153.236 396.954C154.821 396.954 156.106 395.669 156.106 394.084C156.106 392.499 154.821 391.213 153.236 391.213" fill="black" fill-opacity="0.1"/>
<path fill-rule="evenodd" clip-rule="evenodd" d="M178.146 0.507324C176.561 0.507324 175.275 1.79243 175.275 3.37788C175.275 4.96294 176.561 6.24844 178.146 6.24844C179.731 6.24844 181.017 4.96294 181.017 3.37788C181.017 1.79243 179.731 0.507324 178.146 0.507324" fill="black" fill-opacity="0.1"/>
<path fill-rule="evenodd" clip-rule="evenodd" d="M178.146 25.4177C176.561 25.4177 175.275 26.7028 175.275 28.2883C175.275 29.8733 176.561 31.1588 178.146 31.1588C179.731 31.1588 181.017 29.8733 181.017 28.2883C181.017 26.7028 179.731 25.4177 178.146 25.4177" fill="black" fill-opacity="0.1"/>
<path fill-rule="evenodd" clip-rule="evenodd" d="M178.146 50.3284C176.561 50.3284 175.275 51.6135 175.275 53.1989C175.275 54.7844 176.561 56.0695 178.146 56.0695C179.731 56.0695 181.017 54.7844 181.017 53.1989C181.017 51.6135 179.731 50.3284 178.146 50.3284" fill="black" fill-opacity="0.1"/>
<path fill-rule="evenodd" clip-rule="evenodd" d="M178.146 75.2388C176.561 75.2388 175.275 76.5243 175.275 78.1093C175.275 79.6948 176.561 80.9799 178.146 80.9799C179.731 80.9799 181.017 79.6948 181.017 78.1093C181.017 76.5243 179.731 75.2388 178.146 75.2388" fill="black" fill-opacity="0.1"/>
<path fill-rule="evenodd" clip-rule="evenodd" d="M178.146 100.149C176.561 100.149 175.275 101.435 175.275 103.02C175.275 104.605 176.561 105.891 178.146 105.891C179.731 105.891 181.017 104.605 181.017 103.02C181.017 101.435 179.731 100.149 178.146 100.149" fill="black" fill-opacity="0.1"/>
<path fill-rule="evenodd" clip-rule="evenodd" d="M178.146 125.06C176.561 125.06 175.275 126.345 175.275 127.93C175.275 129.516 176.561 130.801 178.146 130.801C179.731 130.801 181.017 129.516 181.017 127.93C181.017 126.345 179.731 125.06 178.146 125.06" fill="black" fill-opacity="0.1"/>
<path fill-rule="evenodd" clip-rule="evenodd" d="M178.146 149.97C176.561 149.97 175.275 151.256 175.275 152.841C175.275 154.426 176.561 155.712 178.146 155.712C179.731 155.712 181.017 154.426 181.017 152.841C181.017 151.256 179.731 149.97 178.146 149.97" fill="black" fill-opacity="0.1"/>
<path fill-rule="evenodd" clip-rule="evenodd" d="M178.146 174.881C176.561 174.881 175.275 176.166 175.275 177.751C175.275 179.337 176.561 180.622 178.146 180.622C179.731 180.622 181.017 179.337 181.017 177.751C181.017 176.166 179.731 174.881 178.146 174.881" fill="black" fill-opacity="0.1"/>
<path fill-rule="evenodd" clip-rule="evenodd" d="M178.146 199.791C176.561 199.791 175.275 201.077 175.275 202.662C175.275 204.247 176.561 205.532 178.146 205.532C179.731 205.532 181.017 204.247 181.017 202.662C181.017 201.077 179.731 199.791 178.146 199.791" fill="black" fill-opacity="0.1"/>
<path fill-rule="evenodd" clip-rule="evenodd" d="M178.146 224.702C176.561 224.702 175.275 225.987 175.275 227.573C175.275 229.158 176.561 230.443 178.146 230.443C179.731 230.443 181.017 229.158 181.017 227.573C181.017 225.987 179.731 224.702 178.146 224.702" fill="black" fill-opacity="0.1"/>
<path fill-rule="evenodd" clip-rule="evenodd" d="M178.146 249.613C176.561 249.613 175.275 250.898 175.275 252.483C175.275 254.068 176.561 255.354 178.146 255.354C179.731 255.354 181.017 254.068 181.017 252.483C181.017 250.898 179.731 249.613 178.146 249.613" fill="black" fill-opacity="0.1"/>
<path fill-rule="evenodd" clip-rule="evenodd" d="M178.146 274.523C176.561 274.523 175.275 275.808 175.275 277.394C175.275 278.979 176.561 280.264 178.146 280.264C179.731 280.264 181.017 278.979 181.017 277.394C181.017 275.808 179.731 274.523 178.146 274.523" fill="black" fill-opacity="0.1"/>
<path fill-rule="evenodd" clip-rule="evenodd" d="M178.146 299.434C176.561 299.434 175.275 300.719 175.275 302.304C175.275 303.89 176.561 305.175 178.146 305.175C179.731 305.175 181.017 303.89 181.017 302.304C181.017 300.719 179.731 299.434 178.146 299.434" fill="black" fill-opacity="0.1"/>
<path fill-rule="evenodd" clip-rule="evenodd" d="M178.146 324.344C176.561 324.344 175.275 325.63 175.275 327.215C175.275 328.8 176.561 330.085 178.146 330.085C179.731 330.085 181.017 328.8 181.017 327.215C181.017 325.63 179.731 324.344 178.146 324.344" fill="black" fill-opacity="0.1"/>
<path fill-rule="evenodd" clip-rule="evenodd" d="M178.146 349.255C176.561 349.255 175.275 350.54 175.275 352.125C175.275 353.711 176.561 354.996 178.146 354.996C179.731 354.996 181.017 353.711 181.017 352.125C181.017 350.54 179.731 349.255 178.146 349.255" fill="black" fill-opacity="0.1"/>
<path fill-rule="evenodd" clip-rule="evenodd" d="M178.146 370.234C176.561 370.234 175.275 371.519 175.275 373.104C175.275 374.69 176.561 375.975 178.146 375.975C179.731 375.975 181.017 374.69 181.017 373.104C181.017 371.519 179.731 370.234 178.146 370.234" fill="black" fill-opacity="0.1"/>
<path fill-rule="evenodd" clip-rule="evenodd" d="M178.146 391.213C176.561 391.213 175.275 392.499 175.275 394.084C175.275 395.669 176.561 396.954 178.146 396.954C179.731 396.954 181.017 395.669 181.017 394.084C181.017 392.499 179.731 391.213 178.146 391.213" fill="black" fill-opacity="0.1"/>
<path fill-rule="evenodd" clip-rule="evenodd" d="M203.058 0.507324C201.473 0.507324 200.188 1.79243 200.188 3.37788C200.188 4.96294 201.473 6.24844 203.058 6.24844C204.644 6.24844 205.929 4.96294 205.929 3.37788C205.929 1.79243 204.644 0.507324 203.058 0.507324" fill="black" fill-opacity="0.1"/>
<path fill-rule="evenodd" clip-rule="evenodd" d="M203.058 25.4177C201.473 25.4177 200.188 26.7028 200.188 28.2883C200.188 29.8733 201.473 31.1588 203.058 31.1588C204.644 31.1588 205.929 29.8733 205.929 28.2883C205.929 26.7028 204.644 25.4177 203.058 25.4177" fill="black" fill-opacity="0.1"/>
<path fill-rule="evenodd" clip-rule="evenodd" d="M203.058 50.3284C201.473 50.3284 200.188 51.6135 200.188 53.1989C200.188 54.7844 201.473 56.0695 203.058 56.0695C204.644 56.0695 205.929 54.7844 205.929 53.1989C205.929 51.6135 204.644 50.3284 203.058 50.3284" fill="black" fill-opacity="0.1"/>
<path fill-rule="evenodd" clip-rule="evenodd" d="M203.058 75.2388C201.473 75.2388 200.188 76.5243 200.188 78.1093C200.188 79.6948 201.473 80.9799 203.058 80.9799C204.644 80.9799 205.929 79.6948 205.929 78.1093C205.929 76.5243 204.644 75.2388 203.058 75.2388" fill="black" fill-opacity="0.1"/>
<path fill-rule="evenodd" clip-rule="evenodd" d="M203.058 100.149C201.473 100.149 200.188 101.435 200.188 103.02C200.188 104.605 201.473 105.891 203.058 105.891C204.644 105.891 205.929 104.605 205.929 103.02C205.929 101.435 204.644 100.149 203.058 100.149" fill="black" fill-opacity="0.1"/>
<path fill-rule="evenodd" clip-rule="evenodd" d="M203.058 125.06C201.473 125.06 200.188 126.345 200.188 127.93C200.188 129.516 201.473 130.801 203.058 130.801C204.644 130.801 205.929 129.516 205.929 127.93C205.929 126.345 204.644 125.06 203.058 125.06" fill="black" fill-opacity="0.1"/>
<path fill-rule="evenodd" clip-rule="evenodd" d="M203.058 149.97C201.473 149.97 200.188 151.256 200.188 152.841C200.188 154.426 201.473 155.712 203.058 155.712C204.644 155.712 205.929 154.426 205.929 152.841C205.929 151.256 204.644 149.97 203.058 149.97" fill="black" fill-opacity="0.1"/>
<path fill-rule="evenodd" clip-rule="evenodd" d="M203.058 174.881C201.473 174.881 200.188 176.166 200.188 177.751C200.188 179.337 201.473 180.622 203.058 180.622C204.644 180.622 205.929 179.337 205.929 177.751C205.929 176.166 204.644 174.881 203.058 174.881" fill="black" fill-opacity="0.1"/>
<path fill-rule="evenodd" clip-rule="evenodd" d="M203.058 199.791C201.473 199.791 200.188 201.077 200.188 202.662C200.188 204.247 201.473 205.532 203.058 205.532C204.644 205.532 205.929 204.247 205.929 202.662C205.929 201.077 204.644 199.791 203.058 199.791" fill="black" fill-opacity="0.1"/>
<path fill-rule="evenodd" clip-rule="evenodd" d="M203.058 224.702C201.473 224.702 200.188 225.987 200.188 227.573C200.188 229.158 201.473 230.443 203.058 230.443C204.644 230.443 205.929 229.158 205.929 227.573C205.929 225.987 204.644 224.702 203.058 224.702" fill="black" fill-opacity="0.1"/>
<path fill-rule="evenodd" clip-rule="evenodd" d="M203.058 249.613C201.473 249.613 200.188 250.898 200.188 252.483C200.188 254.068 201.473 255.354 203.058 255.354C204.644 255.354 205.929 254.068 205.929 252.483C205.929 250.898 204.644 249.613 203.058 249.613" fill="black" fill-opacity="0.1"/>
<path fill-rule="evenodd" clip-rule="evenodd" d="M203.058 274.523C201.473 274.523 200.188 275.808 200.188 277.394C200.188 278.979 201.473 280.264 203.058 280.264C204.644 280.264 205.929 278.979 205.929 277.394C205.929 275.808 204.644 274.523 203.058 274.523" fill="black" fill-opacity="0.1"/>
<path fill-rule="evenodd" clip-rule="evenodd" d="M203.058 299.434C201.473 299.434 200.188 300.719 200.188 302.304C200.188 303.89 201.473 305.175 203.058 305.175C204.644 305.175 205.929 303.89 205.929 302.304C205.929 300.719 204.644 299.434 203.058 299.434" fill="black" fill-opacity="0.1"/>
<path fill-rule="evenodd" clip-rule="evenodd" d="M203.058 324.344C201.473 324.344 200.188 325.63 200.188 327.215C200.188 328.8 201.473 330.085 203.058 330.085C204.644 330.085 205.929 328.8 205.929 327.215C205.929 325.63 204.644 324.344 203.058 324.344" fill="black" fill-opacity="0.1"/>
<path fill-rule="evenodd" clip-rule="evenodd" d="M203.058 349.255C201.473 349.255 200.188 350.54 200.188 352.125C200.188 353.711 201.473 354.996 203.058 354.996C204.644 354.996 205.929 353.711 205.929 352.125C205.929 350.54 204.644 349.255 203.058 349.255" fill="black" fill-opacity="0.1"/>
<path fill-rule="evenodd" clip-rule="evenodd" d="M203.058 370.234C201.473 370.234 200.188 371.519 200.188 373.104C200.188 374.69 201.473 375.975 203.058 375.975C204.644 375.975 205.929 374.69 205.929 373.104C205.929 371.519 204.644 370.234 203.058 370.234" fill="black" fill-opacity="0.1"/>
<path fill-rule="evenodd" clip-rule="evenodd" d="M203.058 391.213C201.473 391.213 200.188 392.499 200.188 394.084C200.188 395.669 201.473 396.954 203.058 396.954C204.644 396.954 205.929 395.669 205.929 394.084C205.929 392.499 204.644 391.213 203.058 391.213" fill="black" fill-opacity="0.1"/>
<path fill-rule="evenodd" clip-rule="evenodd" d="M227.968 0.507324C226.383 0.507324 225.098 1.79243 225.098 3.37788C225.098 4.96294 226.383 6.24844 227.968 6.24844C229.554 6.24844 230.839 4.96294 230.839 3.37788C230.839 1.79243 229.554 0.507324 227.968 0.507324" fill="black" fill-opacity="0.1"/>
<path fill-rule="evenodd" clip-rule="evenodd" d="M227.968 25.4177C226.383 25.4177 225.098 26.7028 225.098 28.2883C225.098 29.8733 226.383 31.1588 227.968 31.1588C229.554 31.1588 230.839 29.8733 230.839 28.2883C230.839 26.7028 229.554 25.4177 227.968 25.4177" fill="black" fill-opacity="0.1"/>
<path fill-rule="evenodd" clip-rule="evenodd" d="M227.968 50.3284C226.383 50.3284 225.098 51.6135 225.098 53.1989C225.098 54.7844 226.383 56.0695 227.968 56.0695C229.554 56.0695 230.839 54.7844 230.839 53.1989C230.839 51.6135 229.554 50.3284 227.968 50.3284" fill="black" fill-opacity="0.1"/>
<path fill-rule="evenodd" clip-rule="evenodd" d="M227.968 75.2388C226.383 75.2388 225.098 76.5243 225.098 78.1093C225.098 79.6948 226.383 80.9799 227.968 80.9799C229.554 80.9799 230.839 79.6948 230.839 78.1093C230.839 76.5243 229.554 75.2388 227.968 75.2388" fill="black" fill-opacity="0.1"/>
<path fill-rule="evenodd" clip-rule="evenodd" d="M227.968 100.149C226.383 100.149 225.098 101.435 225.098 103.02C225.098 104.605 226.383 105.891 227.968 105.891C229.554 105.891 230.839 104.605 230.839 103.02C230.839 101.435 229.554 100.149 227.968 100.149" fill="black" fill-opacity="0.1"/>
<path fill-rule="evenodd" clip-rule="evenodd" d="M227.968 125.06C226.383 125.06 225.098 126.345 225.098 127.93C225.098 129.516 226.383 130.801 227.968 130.801C229.554 130.801 230.839 129.516 230.839 127.93C230.839 126.345 229.554 125.06 227.968 125.06" fill="black" fill-opacity="0.1"/>
<path fill-rule="evenodd" clip-rule="evenodd" d="M227.968 149.97C226.383 149.97 225.098 151.256 225.098 152.841C225.098 154.426 226.383 155.712 227.968 155.712C229.554 155.712 230.839 154.426 230.839 152.841C230.839 151.256 229.554 149.97 227.968 149.97" fill="black" fill-opacity="0.1"/>
<path fill-rule="evenodd" clip-rule="evenodd" d="M227.968 174.881C226.383 174.881 225.098 176.166 225.098 177.751C225.098 179.337 226.383 180.622 227.968 180.622C229.554 180.622 230.839 179.337 230.839 177.751C230.839 176.166 229.554 174.881 227.968 174.881" fill="black" fill-opacity="0.1"/>
<path fill-rule="evenodd" clip-rule="evenodd" d="M227.968 199.791C226.383 199.791 225.098 201.077 225.098 202.662C225.098 204.247 226.383 205.532 227.968 205.532C229.554 205.532 230.839 204.247 230.839 202.662C230.839 201.077 229.554 199.791 227.968 199.791" fill="black" fill-opacity="0.1"/>
<path fill-rule="evenodd" clip-rule="evenodd" d="M227.968 224.702C226.383 224.702 225.098 225.987 225.098 227.573C225.098 229.158 226.383 230.443 227.968 230.443C229.554 230.443 230.839 229.158 230.839 227.573C230.839 225.987 229.554 224.702 227.968 224.702" fill="black" fill-opacity="0.1"/>
<path fill-rule="evenodd" clip-rule="evenodd" d="M227.968 249.613C226.383 249.613 225.098 250.898 225.098 252.483C225.098 254.068 226.383 255.354 227.968 255.354C229.554 255.354 230.839 254.068 230.839 252.483C230.839 250.898 229.554 249.613 227.968 249.613" fill="black" fill-opacity="0.1"/>
<path fill-rule="evenodd" clip-rule="evenodd" d="M227.968 274.523C226.383 274.523 225.098 275.808 225.098 277.394C225.098 278.979 226.383 280.264 227.968 280.264C229.554 280.264 230.839 278.979 230.839 277.394C230.839 275.808 229.554 274.523 227.968 274.523" fill="black" fill-opacity="0.1"/>
<path fill-rule="evenodd" clip-rule="evenodd" d="M227.968 299.434C226.383 299.434 225.098 300.719 225.098 302.304C225.098 303.89 226.383 305.175 227.968 305.175C229.554 305.175 230.839 303.89 230.839 302.304C230.839 300.719 229.554 299.434 227.968 299.434" fill="black" fill-opacity="0.1"/>
<path fill-rule="evenodd" clip-rule="evenodd" d="M227.968 324.344C226.383 324.344 225.098 325.63 225.098 327.215C225.098 328.8 226.383 330.085 227.968 330.085C229.554 330.085 230.839 328.8 230.839 327.215C230.839 325.63 229.554 324.344 227.968 324.344" fill="black" fill-opacity="0.1"/>
<path fill-rule="evenodd" clip-rule="evenodd" d="M227.968 349.255C226.383 349.255 225.098 350.54 225.098 352.125C225.098 353.711 226.383 354.996 227.968 354.996C229.554 354.996 230.839 353.711 230.839 352.125C230.839 350.54 229.554 349.255 227.968 349.255" fill="black" fill-opacity="0.1"/>
<path fill-rule="evenodd" clip-rule="evenodd" d="M227.968 370.234C226.383 370.234 225.098 371.519 225.098 373.104C225.098 374.69 226.383 375.975 227.968 375.975C229.554 375.975 230.839 374.69 230.839 373.104C230.839 371.519 229.554 370.234 227.968 370.234" fill="black" fill-opacity="0.1"/>
<path fill-rule="evenodd" clip-rule="evenodd" d="M227.968 391.213C226.383 391.213 225.098 392.499 225.098 394.084C225.098 395.669 226.383 396.954 227.968 396.954C229.554 396.954 230.839 395.669 230.839 394.084C230.839 392.499 229.554 391.213 227.968 391.213" fill="black" fill-opacity="0.1"/>
<path fill-rule="evenodd" clip-rule="evenodd" d="M252.879 0.507324C251.293 0.507324 250.008 1.79243 250.008 3.37788C250.008 4.96294 251.293 6.24844 252.879 6.24844C254.464 6.24844 255.749 4.96294 255.749 3.37788C255.749 1.79243 254.464 0.507324 252.879 0.507324" fill="black" fill-opacity="0.1"/>
<path fill-rule="evenodd" clip-rule="evenodd" d="M252.879 25.4177C251.293 25.4177 250.008 26.7028 250.008 28.2883C250.008 29.8733 251.293 31.1588 252.879 31.1588C254.464 31.1588 255.749 29.8733 255.749 28.2883C255.749 26.7028 254.464 25.4177 252.879 25.4177" fill="black" fill-opacity="0.1"/>
<path fill-rule="evenodd" clip-rule="evenodd" d="M252.879 50.3284C251.293 50.3284 250.008 51.6135 250.008 53.1989C250.008 54.7844 251.293 56.0695 252.879 56.0695C254.464 56.0695 255.749 54.7844 255.749 53.1989C255.749 51.6135 254.464 50.3284 252.879 50.3284" fill="black" fill-opacity="0.1"/>
<path fill-rule="evenodd" clip-rule="evenodd" d="M252.879 75.2388C251.293 75.2388 250.008 76.5243 250.008 78.1093C250.008 79.6948 251.293 80.9799 252.879 80.9799C254.464 80.9799 255.749 79.6948 255.749 78.1093C255.749 76.5243 254.464 75.2388 252.879 75.2388" fill="black" fill-opacity="0.1"/>
<path fill-rule="evenodd" clip-rule="evenodd" d="M252.879 100.149C251.293 100.149 250.008 101.435 250.008 103.02C250.008 104.605 251.293 105.891 252.879 105.891C254.464 105.891 255.749 104.605 255.749 103.02C255.749 101.435 254.464 100.149 252.879 100.149" fill="black" fill-opacity="0.1"/>
<path fill-rule="evenodd" clip-rule="evenodd" d="M252.879 125.06C251.293 125.06 250.008 126.345 250.008 127.93C250.008 129.516 251.293 130.801 252.879 130.801C254.464 130.801 255.749 129.516 255.749 127.93C255.749 126.345 254.464 125.06 252.879 125.06" fill="black" fill-opacity="0.1"/>
<path fill-rule="evenodd" clip-rule="evenodd" d="M252.879 149.97C251.293 149.97 250.008 151.256 250.008 152.841C250.008 154.426 251.293 155.712 252.879 155.712C254.464 155.712 255.749 154.426 255.749 152.841C255.749 151.256 254.464 149.97 252.879 149.97" fill="black" fill-opacity="0.1"/>
<path fill-rule="evenodd" clip-rule="evenodd" d="M252.879 174.881C251.293 174.881 250.008 176.166 250.008 177.751C250.008 179.337 251.293 180.622 252.879 180.622C254.464 180.622 255.749 179.337 255.749 177.751C255.749 176.166 254.464 174.881 252.879 174.881" fill="black" fill-opacity="0.1"/>
<path fill-rule="evenodd" clip-rule="evenodd" d="M252.879 199.791C251.293 199.791 250.008 201.077 250.008 202.662C250.008 204.247 251.293 205.532 252.879 205.532C254.464 205.532 255.749 204.247 255.749 202.662C255.749 201.077 254.464 199.791 252.879 199.791" fill="black" fill-opacity="0.1"/>
<path fill-rule="evenodd" clip-rule="evenodd" d="M252.879 224.702C251.293 224.702 250.008 225.987 250.008 227.573C250.008 229.158 251.293 230.443 252.879 230.443C254.464 230.443 255.749 229.158 255.749 227.573C255.749 225.987 254.464 224.702 252.879 224.702" fill="black" fill-opacity="0.1"/>
<path fill-rule="evenodd" clip-rule="evenodd" d="M252.879 249.613C251.293 249.613 250.008 250.898 250.008 252.483C250.008 254.068 251.293 255.354 252.879 255.354C254.464 255.354 255.749 254.068 255.749 252.483C255.749 250.898 254.464 249.613 252.879 249.613" fill="black" fill-opacity="0.1"/>
<path fill-rule="evenodd" clip-rule="evenodd" d="M252.879 274.523C251.293 274.523 250.008 275.808 250.008 277.394C250.008 278.979 251.293 280.264 252.879 280.264C254.464 280.264 255.749 278.979 255.749 277.394C255.749 275.808 254.464 274.523 252.879 274.523" fill="black" fill-opacity="0.1"/>
<path fill-rule="evenodd" clip-rule="evenodd" d="M252.879 299.434C251.293 299.434 250.008 300.719 250.008 302.304C250.008 303.89 251.293 305.175 252.879 305.175C254.464 305.175 255.749 303.89 255.749 302.304C255.749 300.719 254.464 299.434 252.879 299.434" fill="black" fill-opacity="0.1"/>
<path fill-rule="evenodd" clip-rule="evenodd" d="M252.879 324.344C251.293 324.344 250.008 325.63 250.008 327.215C250.008 328.8 251.293 330.085 252.879 330.085C254.464 330.085 255.749 328.8 255.749 327.215C255.749 325.63 254.464 324.344 252.879 324.344" fill="black" fill-opacity="0.1"/>
<path fill-rule="evenodd" clip-rule="evenodd" d="M252.879 349.255C251.293 349.255 250.008 350.54 250.008 352.125C250.008 353.711 251.293 354.996 252.879 354.996C254.464 354.996 255.749 353.711 255.749 352.125C255.749 350.54 254.464 349.255 252.879 349.255" fill="black" fill-opacity="0.1"/>
<path fill-rule="evenodd" clip-rule="evenodd" d="M252.879 370.234C251.293 370.234 250.008 371.519 250.008 373.104C250.008 374.69 251.293 375.975 252.879 375.975C254.464 375.975 255.749 374.69 255.749 373.104C255.749 371.519 254.464 370.234 252.879 370.234" fill="black" fill-opacity="0.1"/>
<path fill-rule="evenodd" clip-rule="evenodd" d="M252.879 391.213C251.293 391.213 250.008 392.499 250.008 394.084C250.008 395.669 251.293 396.954 252.879 396.954C254.464 396.954 255.749 395.669 255.749 394.084C255.749 392.499 254.464 391.213 252.879 391.213" fill="black" fill-opacity="0.1"/>
<path fill-rule="evenodd" clip-rule="evenodd" d="M277.789 0.507324C276.203 0.507324 274.918 1.79243 274.918 3.37788C274.918 4.96294 276.203 6.24844 277.789 6.24844C279.374 6.24844 280.659 4.96294 280.659 3.37788C280.659 1.79243 279.374 0.507324 277.789 0.507324" fill="black" fill-opacity="0.1"/>
<path fill-rule="evenodd" clip-rule="evenodd" d="M277.789 25.4177C276.203 25.4177 274.918 26.7028 274.918 28.2883C274.918 29.8733 276.203 31.1588 277.789 31.1588C279.374 31.1588 280.659 29.8733 280.659 28.2883C280.659 26.7028 279.374 25.4177 277.789 25.4177" fill="black" fill-opacity="0.1"/>
<path fill-rule="evenodd" clip-rule="evenodd" d="M277.789 50.3284C276.203 50.3284 274.918 51.6135 274.918 53.1989C274.918 54.7844 276.203 56.0695 277.789 56.0695C279.374 56.0695 280.659 54.7844 280.659 53.1989C280.659 51.6135 279.374 50.3284 277.789 50.3284" fill="black" fill-opacity="0.1"/>
<path fill-rule="evenodd" clip-rule="evenodd" d="M277.789 75.2388C276.203 75.2388 274.918 76.5243 274.918 78.1093C274.918 79.6948 276.203 80.9799 277.789 80.9799C279.374 80.9799 280.659 79.6948 280.659 78.1093C280.659 76.5243 279.374 75.2388 277.789 75.2388" fill="black" fill-opacity="0.1"/>
<path fill-rule="evenodd" clip-rule="evenodd" d="M277.789 100.149C276.203 100.149 274.918 101.435 274.918 103.02C274.918 104.605 276.203 105.891 277.789 105.891C279.374 105.891 280.659 104.605 280.659 103.02C280.659 101.435 279.374 100.149 277.789 100.149" fill="black" fill-opacity="0.1"/>
<path fill-rule="evenodd" clip-rule="evenodd" d="M277.789 125.06C276.203 125.06 274.918 126.345 274.918 127.93C274.918 129.516 276.203 130.801 277.789 130.801C279.374 130.801 280.659 129.516 280.659 127.93C280.659 126.345 279.374 125.06 277.789 125.06" fill="black" fill-opacity="0.1"/>
<path fill-rule="evenodd" clip-rule="evenodd" d="M277.789 149.97C276.203 149.97 274.918 151.256 274.918 152.841C274.918 154.426 276.203 155.712 277.789 155.712C279.374 155.712 280.659 154.426 280.659 152.841C280.659 151.256 279.374 149.97 277.789 149.97" fill="black" fill-opacity="0.1"/>
<path fill-rule="evenodd" clip-rule="evenodd" d="M277.789 174.881C276.203 174.881 274.918 176.166 274.918 177.751C274.918 179.337 276.203 180.622 277.789 180.622C279.374 180.622 280.659 179.337 280.659 177.751C280.659 176.166 279.374 174.881 277.789 174.881" fill="black" fill-opacity="0.1"/>
<path fill-rule="evenodd" clip-rule="evenodd" d="M277.789 199.791C276.203 199.791 274.918 201.077 274.918 202.662C274.918 204.247 276.203 205.532 277.789 205.532C279.374 205.532 280.659 204.247 280.659 202.662C280.659 201.077 279.374 199.791 277.789 199.791" fill="black" fill-opacity="0.1"/>
<path fill-rule="evenodd" clip-rule="evenodd" d="M277.789 224.702C276.203 224.702 274.918 225.987 274.918 227.573C274.918 229.158 276.203 230.443 277.789 230.443C279.374 230.443 280.659 229.158 280.659 227.573C280.659 225.987 279.374 224.702 277.789 224.702" fill="black" fill-opacity="0.1"/>
<path fill-rule="evenodd" clip-rule="evenodd" d="M277.789 249.613C276.203 249.613 274.918 250.898 274.918 252.483C274.918 254.068 276.203 255.354 277.789 255.354C279.374 255.354 280.659 254.068 280.659 252.483C280.659 250.898 279.374 249.613 277.789 249.613" fill="black" fill-opacity="0.1"/>
<path fill-rule="evenodd" clip-rule="evenodd" d="M277.789 274.523C276.203 274.523 274.918 275.808 274.918 277.394C274.918 278.979 276.203 280.264 277.789 280.264C279.374 280.264 280.659 278.979 280.659 277.394C280.659 275.808 279.374 274.523 277.789 274.523" fill="black" fill-opacity="0.1"/>
<path fill-rule="evenodd" clip-rule="evenodd" d="M277.789 299.434C276.203 299.434 274.918 300.719 274.918 302.304C274.918 303.89 276.203 305.175 277.789 305.175C279.374 305.175 280.659 303.89 280.659 302.304C280.659 300.719 279.374 299.434 277.789 299.434" fill="black" fill-opacity="0.1"/>
<path fill-rule="evenodd" clip-rule="evenodd" d="M277.789 324.344C276.203 324.344 274.918 325.63 274.918 327.215C274.918 328.8 276.203 330.085 277.789 330.085C279.374 330.085 280.659 328.8 280.659 327.215C280.659 325.63 279.374 324.344 277.789 324.344" fill="black" fill-opacity="0.1"/>
<path fill-rule="evenodd" clip-rule="evenodd" d="M277.789 349.255C276.203 349.255 274.918 350.54 274.918 352.125C274.918 353.711 276.203 354.996 277.789 354.996C279.374 354.996 280.659 353.711 280.659 352.125C280.659 350.54 279.374 349.255 277.789 349.255" fill="black" fill-opacity="0.1"/>
<path fill-rule="evenodd" clip-rule="evenodd" d="M277.789 370.234C276.203 370.234 274.918 371.519 274.918 373.104C274.918 374.69 276.203 375.975 277.789 375.975C279.374 375.975 280.659 374.69 280.659 373.104C280.659 371.519 279.374 370.234 277.789 370.234" fill="black" fill-opacity="0.1"/>
<path fill-rule="evenodd" clip-rule="evenodd" d="M277.789 391.213C276.203 391.213 274.918 392.499 274.918 394.084C274.918 395.669 276.203 396.954 277.789 396.954C279.374 396.954 280.659 395.669 280.659 394.084C280.659 392.499 279.374 391.213 277.789 391.213" fill="black" fill-opacity="0.1"/>
<path fill-rule="evenodd" clip-rule="evenodd" d="M302.699 0.507324C301.113 0.507324 299.828 1.79243 299.828 3.37788C299.828 4.96294 301.113 6.24844 302.699 6.24844C304.284 6.24844 305.569 4.96294 305.569 3.37788C305.569 1.79243 304.284 0.507324 302.699 0.507324" fill="black" fill-opacity="0.1"/>
<path fill-rule="evenodd" clip-rule="evenodd" d="M302.699 25.4177C301.113 25.4177 299.828 26.7028 299.828 28.2883C299.828 29.8733 301.113 31.1588 302.699 31.1588C304.284 31.1588 305.569 29.8733 305.569 28.2883C305.569 26.7028 304.284 25.4177 302.699 25.4177" fill="black" fill-opacity="0.1"/>
<path fill-rule="evenodd" clip-rule="evenodd" d="M302.699 50.3284C301.113 50.3284 299.828 51.6135 299.828 53.1989C299.828 54.7844 301.113 56.0695 302.699 56.0695C304.284 56.0695 305.569 54.7844 305.569 53.1989C305.569 51.6135 304.284 50.3284 302.699 50.3284" fill="black" fill-opacity="0.1"/>
<path fill-rule="evenodd" clip-rule="evenodd" d="M302.699 75.2388C301.113 75.2388 299.828 76.5243 299.828 78.1093C299.828 79.6948 301.113 80.9799 302.699 80.9799C304.284 80.9799 305.569 79.6948 305.569 78.1093C305.569 76.5243 304.284 75.2388 302.699 75.2388" fill="black" fill-opacity="0.1"/>
<path fill-rule="evenodd" clip-rule="evenodd" d="M302.699 100.149C301.113 100.149 299.828 101.435 299.828 103.02C299.828 104.605 301.113 105.891 302.699 105.891C304.284 105.891 305.569 104.605 305.569 103.02C305.569 101.435 304.284 100.149 302.699 100.149" fill="black" fill-opacity="0.1"/>
<path fill-rule="evenodd" clip-rule="evenodd" d="M302.699 125.06C301.113 125.06 299.828 126.345 299.828 127.93C299.828 129.516 301.113 130.801 302.699 130.801C304.284 130.801 305.569 129.516 305.569 127.93C305.569 126.345 304.284 125.06 302.699 125.06" fill="black" fill-opacity="0.1"/>
<path fill-rule="evenodd" clip-rule="evenodd" d="M302.699 149.97C301.113 149.97 299.828 151.256 299.828 152.841C299.828 154.426 301.113 155.712 302.699 155.712C304.284 155.712 305.569 154.426 305.569 152.841C305.569 151.256 304.284 149.97 302.699 149.97" fill="black" fill-opacity="0.1"/>
<path fill-rule="evenodd" clip-rule="evenodd" d="M302.699 174.881C301.113 174.881 299.828 176.166 299.828 177.751C299.828 179.337 301.113 180.622 302.699 180.622C304.284 180.622 305.569 179.337 305.569 177.751C305.569 176.166 304.284 174.881 302.699 174.881" fill="black" fill-opacity="0.1"/>
<path fill-rule="evenodd" clip-rule="evenodd" d="M302.699 199.791C301.113 199.791 299.828 201.077 299.828 202.662C299.828 204.247 301.113 205.532 302.699 205.532C304.284 205.532 305.569 204.247 305.569 202.662C305.569 201.077 304.284 199.791 302.699 199.791" fill="black" fill-opacity="0.1"/>
<path fill-rule="evenodd" clip-rule="evenodd" d="M302.699 224.702C301.113 224.702 299.828 225.987 299.828 227.573C299.828 229.158 301.113 230.443 302.699 230.443C304.284 230.443 305.569 229.158 305.569 227.573C305.569 225.987 304.284 224.702 302.699 224.702" fill="black" fill-opacity="0.1"/>
<path fill-rule="evenodd" clip-rule="evenodd" d="M302.699 249.613C301.113 249.613 299.828 250.898 299.828 252.483C299.828 254.068 301.113 255.354 302.699 255.354C304.284 255.354 305.569 254.068 305.569 252.483C305.569 250.898 304.284 249.613 302.699 249.613" fill="black" fill-opacity="0.1"/>
<path fill-rule="evenodd" clip-rule="evenodd" d="M302.699 274.523C301.113 274.523 299.828 275.808 299.828 277.394C299.828 278.979 301.113 280.264 302.699 280.264C304.284 280.264 305.569 278.979 305.569 277.394C305.569 275.808 304.284 274.523 302.699 274.523" fill="black" fill-opacity="0.1"/>
<path fill-rule="evenodd" clip-rule="evenodd" d="M302.699 299.434C301.113 299.434 299.828 300.719 299.828 302.304C299.828 303.89 301.113 305.175 302.699 305.175C304.284 305.175 305.569 303.89 305.569 302.304C305.569 300.719 304.284 299.434 302.699 299.434" fill="black" fill-opacity="0.1"/>
<path fill-rule="evenodd" clip-rule="evenodd" d="M302.699 324.344C301.113 324.344 299.828 325.63 299.828 327.215C299.828 328.8 301.113 330.085 302.699 330.085C304.284 330.085 305.569 328.8 305.569 327.215C305.569 325.63 304.284 324.344 302.699 324.344" fill="black" fill-opacity="0.1"/>
<path fill-rule="evenodd" clip-rule="evenodd" d="M302.699 349.255C301.113 349.255 299.828 350.54 299.828 352.125C299.828 353.711 301.113 354.996 302.699 354.996C304.284 354.996 305.569 353.711 305.569 352.125C305.569 350.54 304.284 349.255 302.699 349.255" fill="black" fill-opacity="0.1"/>
<path fill-rule="evenodd" clip-rule="evenodd" d="M302.699 370.234C301.113 370.234 299.828 371.519 299.828 373.104C299.828 374.69 301.113 375.975 302.699 375.975C304.284 375.975 305.569 374.69 305.569 373.104C305.569 371.519 304.284 370.234 302.699 370.234" fill="black" fill-opacity="0.1"/>
<path fill-rule="evenodd" clip-rule="evenodd" d="M302.699 391.213C301.113 391.213 299.828 392.499 299.828 394.084C299.828 395.669 301.113 396.954 302.699 396.954C304.284 396.954 305.569 395.669 305.569 394.084C305.569 392.499 304.284 391.213 302.699 391.213" fill="black" fill-opacity="0.1"/>
</svg>
