<svg width="25" height="22" viewBox="0 0 25 22" fill="none" xmlns="http://www.w3.org/2000/svg">
<path d="M2.79883 2.75H4.66471V3.66667H2.79883V2.75Z" fill="black" fill-opacity="0.38"/>
<path d="M0 8.25H24.2564V22H0V8.25Z" fill="black" fill-opacity="0.38"/>
<path d="M19.5918 2.75H21.4577V3.66667H19.5918V2.75Z" fill="black" fill-opacity="0.38"/>
<path fill-rule="evenodd" clip-rule="evenodd" d="M21.4576 3.66667V5.5H19.5917V3.66667H16.7929V1.95365V1.83333C16.7637 0.790625 15.9999 0 14.9154 0H9.13697C8.05243 0 7.46351 0.784896 7.46351 1.83333V1.95365V3.66667H4.66469V5.5H2.79882V3.66667H0V7.33333H24.2564V3.66667H21.4576ZM15.86 3.63802V3.66667H8.39645V3.63802V1.95365C8.39645 1.36927 8.56555 0.916667 9.19528 0.916667H14.8571C15.4635 0.916667 15.86 1.35781 15.86 1.95365V3.63802Z" fill="black" fill-opacity="0.38"/>
</svg>
