<svg width="39" height="54" viewBox="0 0 39 54" fill="none" xmlns="http://www.w3.org/2000/svg">
<path fill-rule="evenodd" clip-rule="evenodd" d="M19.6628 2C9.94781 2 2 9.71717 2 19.1501C2 32.0125 19.6628 51 19.6628 51C19.6628 51 37.3256 32.0125 37.3256 19.1501C37.3256 9.71717 29.3778 2 19.6628 2V2ZM19.6628 25.3605C16.1535 25.3605 13.3953 22.6022 13.3953 19.093C13.3953 15.5836 16.1534 12.8256 19.6628 12.8256C23.1722 12.8256 25.9302 15.5836 25.9302 19.093C25.9302 22.6022 23.172 25.3605 19.6628 25.3605V25.3605Z" fill="#EA4335"/>
<path d="M19.6628 51L18.5645 52.0217L19.6628 53.2023L20.7611 52.0217L19.6628 51ZM19.6628 0.5C9.16134 0.5 0.5 8.8474 0.5 19.1501H3.5C3.5 10.5869 10.7343 3.5 19.6628 3.5V0.5ZM0.5 19.1501C0.5 22.6782 1.70205 26.5062 3.3978 30.1814C5.10303 33.8772 7.36266 37.5352 9.59959 40.7544C11.8396 43.978 14.0764 46.7895 15.7521 48.7942C16.5906 49.7974 17.2903 50.6006 17.7818 51.1546C18.0277 51.4316 18.2215 51.6465 18.3549 51.793C18.4215 51.8663 18.473 51.9225 18.5083 51.9608C18.526 51.98 18.5396 51.9947 18.549 52.0049C18.5537 52.01 18.5573 52.0139 18.5599 52.0167C18.5612 52.0181 18.5623 52.0192 18.563 52.0201C18.5634 52.0205 18.5638 52.0209 18.564 52.0211C18.5643 52.0214 18.5645 52.0217 19.6628 51C20.7611 49.9783 20.7612 49.9785 20.7612 49.9785C20.7611 49.9784 20.7611 49.9784 20.7609 49.9782C20.7606 49.9779 20.7601 49.9772 20.7592 49.9763C20.7575 49.9745 20.7548 49.9716 20.751 49.9675C20.7434 49.9593 20.7317 49.9466 20.7159 49.9294C20.6844 49.8952 20.6367 49.8432 20.574 49.7742C20.4486 49.6364 20.263 49.4307 20.0258 49.1635C19.5515 48.6288 18.8713 47.8481 18.0539 46.8702C16.4177 44.9128 14.2389 42.1736 12.0632 39.0425C9.88444 35.907 7.72836 32.4064 6.12182 28.9245C4.5058 25.4221 3.5 22.0532 3.5 19.1501H0.5ZM19.6628 51C20.7611 52.0217 20.7613 52.0214 20.7616 52.0211C20.7618 52.0209 20.7622 52.0205 20.7626 52.0201C20.7633 52.0192 20.7643 52.0181 20.7656 52.0167C20.7682 52.0139 20.7719 52.01 20.7766 52.0049C20.786 51.9947 20.7996 51.98 20.8173 51.9608C20.8526 51.9225 20.9041 51.8663 20.9707 51.793C21.104 51.6465 21.2979 51.4316 21.5437 51.1546C22.0353 50.6006 22.735 49.7974 23.5735 48.7942C25.2491 46.7895 27.486 43.978 29.726 40.7544C31.9629 37.5352 34.2225 33.8772 35.9278 30.1814C37.6235 26.5062 38.8256 22.6782 38.8256 19.1501H35.8256C35.8256 22.0532 34.8198 25.4221 33.2038 28.9245C31.5972 32.4064 29.4411 35.907 27.2624 39.0425C25.0867 42.1736 22.9078 44.9128 21.2717 46.8702C20.4543 47.8481 19.7741 48.6288 19.2997 49.1635C19.0626 49.4307 18.877 49.6364 18.7516 49.7742C18.6889 49.8432 18.6412 49.8952 18.6097 49.9294C18.5939 49.9466 18.5822 49.9593 18.5746 49.9675C18.5708 49.9716 18.5681 49.9745 18.5664 49.9763C18.5655 49.9772 18.565 49.9779 18.5646 49.9782C18.5645 49.9784 18.5645 49.9784 18.5644 49.9785C18.5644 49.9785 18.5645 49.9783 19.6628 51ZM38.8256 19.1501C38.8256 8.8474 30.1642 0.5 19.6628 0.5V3.5C28.5913 3.5 35.8256 10.5869 35.8256 19.1501H38.8256ZM19.6628 23.8605C16.982 23.8605 14.8953 21.7738 14.8953 19.093H11.8953C11.8953 23.4307 15.3251 26.8605 19.6628 26.8605V23.8605ZM14.8953 19.093C14.8953 16.412 16.9818 14.3256 19.6628 14.3256V11.3256C15.325 11.3256 11.8953 14.7552 11.8953 19.093H14.8953ZM19.6628 14.3256C22.3437 14.3256 24.4302 16.412 24.4302 19.093H27.4302C27.4302 14.7552 24.0006 11.3256 19.6628 11.3256V14.3256ZM24.4302 19.093C24.4302 21.7738 22.3436 23.8605 19.6628 23.8605V26.8605C24.0005 26.8605 27.4302 23.4307 27.4302 19.093H24.4302Z" fill="white"/>
</svg>
