<svg width="24" height="24" viewBox="0 0 24 24" fill="none" xmlns="http://www.w3.org/2000/svg">
<path fill-rule="evenodd" clip-rule="evenodd" d="M22.5125 12.2049C23.375 11.9236 24 11.111 24 10.1546C24 8.967 23.0375 7.99813 21.8438 7.99813H15.4313C15.5563 6.43545 16.0563 4.64774 15.5 2.54125C15.0313 0.76604 13.0375 -0.565365 12.225 0.240979C11.9125 0.547265 12.0063 1.19109 12.0063 2.35373C12.0063 5.02904 10.8937 7.7356 9.51875 9.14827C8.93125 9.75459 7.94375 9.96086 7.00625 9.99837V8.99825H0V24H7V21.9998C8.2875 21.9685 10.2875 22.3248 11.7375 22.4123C14.9875 22.6061 18.1125 22.2623 19.6313 21.906C21.15 21.5497 21.8188 21.0934 21.8188 19.9933C21.8188 19.5932 21.7 19.2244 21.5 18.9119C22.2375 18.6181 22.7563 17.8993 22.7563 17.0554C22.7563 16.6054 22.6063 16.1928 22.3563 15.8553C23.1 15.5678 23.6313 14.8427 23.6313 13.9926C23.625 13.2112 23.1688 12.5299 22.5125 12.2049ZM3 21.981C2.45 21.981 2 21.5372 2 20.9809C2 20.4308 2.45 19.9808 3 19.9808C3.55 19.9808 4 20.4246 4 20.9809C4 21.531 3.55 21.981 3 21.981Z" fill="black" fill-opacity="0.38"/>
</svg>
